<?xml version="1.0" encoding="utf-8"?>
<!-- Generator: Adobe Illustrator 26.3.1, SVG Export Plug-In . SVG Version: 6.00 Build 0)  -->
<svg version="1.1" id="Laag_1" xmlns="http://www.w3.org/2000/svg" xmlns:xlink="http://www.w3.org/1999/xlink" x="0px" y="0px"
	 viewBox="0 0 282.1 368.2" style="enable-background:new 0 0 282.1 368.2;" xml:space="preserve">
<style type="text/css">
	.st0{fill:#C39F06;stroke:#352B03;stroke-width:6;stroke-miterlimit:10;}
	.st1{fill:none;stroke:#352B03;stroke-width:6;stroke-miterlimit:10;}
	.st2{fill:none;stroke:#352B03;stroke-width:6;stroke-linecap:round;stroke-linejoin:round;}
</style>
<path class="st0" d="M8.1,89v270.3l266.1-2.1V86.9C274.1,86.9,143.4,201.3,8.1,89z"/>
<polyline class="st0" points="165.6,135.6 183.2,40.6 206.5,56.7 179,133.3 "/>
<line class="st1" x1="214.3" y1="272.3" x2="214.3" y2="359.3"/>
<line class="st1" x1="33.7" y1="210.1" x2="33.7" y2="357.2"/>
<line class="st1" x1="249.8" y1="210.9" x2="249.8" y2="357.2"/>
<line class="st1" x1="69" y1="263.5" x2="69" y2="357.2"/>
<path class="st1" d="M58.6,212.5C60.3,255,85.8,335.4,143,357.2c57.3-15.6,78.3-99.3,84.9-143.3"/>
<polyline class="st0" points="116.1,136.5 98.4,40.7 75.1,56.8 102.7,133.7 "/>
<polyline class="st0" points="131.5,137.3 115.7,30 139.9,11 163.2,30.4 151.2,137.3 "/>
<path class="st2" d="M227.7,213.9c13.5-0.8,28.9-4.3,46.4-11.3V86.9c0,0-124.8,115.9-266.1,2.1v118.3
	c-3.3-4.3,125.9,44.1,132.9-67.5C138.5,148.2,153.5,214.3,227.7,213.9"/>
<path class="st1" d="M112.9,136.1c0,0,0,58.9-105.2,58.9"/>
<path class="st1" d="M85.8,131.7c-1.5,5.4-12.5,30.2-77.2,33.8"/>
<path class="st1" d="M58.6,119.4c0,0-5.4,19.1-50,21.4"/>
<path class="st1" d="M168.4,136.1c0,0,11.4,51.8,105.2,57.6"/>
<path class="st1" d="M197.6,128.4c0,0,8.4,32.1,77.2,35.9"/>
<path class="st1" d="M226.9,115.3c0,0,5.4,22.1,50,24.4"/>
</svg>
